<svg width="24" height="24" viewBox="0 0 24 24" fill="none" xmlns="http://www.w3.org/2000/svg">
<path fill-rule="evenodd" clip-rule="evenodd" d="M5.46871 5.47063C5.76108 5.17721 6.23595 5.17635 6.52937 5.46871L12.0217 10.9412L17.4706 5.51193C17.764 5.21957 18.2389 5.22042 18.5313 5.51384C18.8237 5.80727 18.8228 6.28214 18.5294 6.5745L13.0843 12L18.5294 17.4255C18.8228 17.7179 18.8237 18.1927 18.5313 18.4862C18.2389 18.7796 17.764 18.7804 17.4706 18.4881L12.0217 13.0588L6.52937 18.5313C6.23595 18.8237 5.76108 18.8228 5.46871 18.5294C5.17635 18.236 5.17721 17.7611 5.47063 17.4687L10.9591 12L5.47063 6.53129C5.17721 6.23892 5.17635 5.76405 5.46871 5.47063Z" fill="#7A7A7A"/>
</svg>
